<svg xmlns="http://www.w3.org/2000/svg" viewBox="0 0 1200 630"><rect width="1200" height="630" fill="#edf0eb"/><g stroke="#aab8b2" opacity=".45"><path d="M0 80h1200M0 160h1200M0 240h1200M0 320h1200M0 400h1200M0 480h1200M0 560h1200M80 0v630M160 0v630M240 0v630M320 0v630M400 0v630M480 0v630M560 0v630M640 0v630M720 0v630M800 0v630M880 0v630M960 0v630M1040 0v630M1120 0v630"/></g><path d="M100 430h260l90-180h220l80 110h350" fill="none" stroke="#0b6684" stroke-width="12"/><circle cx="450" cy="250" r="22" fill="#bd452d"/><text x="100" y="160" fill="#102720" font-family="Arial,sans-serif" font-size="72" font-weight="700">Taller Norte</text><text x="100" y="225" fill="#40564f" font-family="Arial,sans-serif" font-size="38">Software a medida</text></svg>
